<svg id="Layer_1" xmlns="http://www.w3.org/2000/svg" width="500" height="500" viewBox="0 0 500 500"><g fill="#CCC"><path transform="rotate(-10.091 229.165 343.516)" d="M84.959 247.849h288.54v191.49H84.959z"/><path d="M195.231 152.479c9.514 53.488-26.131 104.563-79.618 114.078-53.487 9.516-104.559-26.132-114.076-79.62-9.514-53.48 26.131-104.555 79.618-114.078 53.487-9.507 104.559 26.139 114.076 79.62z"/><path d="M388.923 118.021c9.516 53.489-26.131 104.563-79.619 114.078-53.485 9.515-104.559-26.131-114.073-79.62-9.517-53.481 26.129-104.555 79.615-114.071 53.488-9.514 104.562 26.125 114.077 79.613zM500 397.959l-189.824-68.766 154.464-130.01z"/></g></svg>