<svg id="Layer_1" xmlns="http://www.w3.org/2000/svg" width="500" height="500" viewBox="0 0 500 500"><path fill="#EE4645" d="M0 283.863v159.339h500V283.863H0zm467.856 85.416H31.793v-60.24h436.063v60.24z"/><path fill="#FFF" d="M153.33 238.383h195.631v97.916H153.33z"/><path fill="#CCC" d="M69.516 176.091L235.458 57.029l25.122-.231 167.03 115.997-141.635 114.179-36.649-29.522-36.095 30.192z"/><path fill="#FFF" d="M249.883 156.545c-50.64-.262-67.182 42.452-67.272 60.612-.095 18.16 11.873 44.16 23.017 63.247 11.141 19.076 17.907 48.51 17.907 48.51l25.449.135 25.45.127s7.072-29.36 18.409-48.323c11.341-18.964 23.581-44.841 23.676-62.999.094-18.158-16.002-61.043-66.636-61.309z"/><path fill="#CCC" d="M251.278 313.173l6.166.029 13.657-70.292-2.269-.014zM247.527 313.147l-6.154-.029-12.933-70.43 2.273.013z"/><path fill="none" stroke="#CCC" stroke-miterlimit="10" d="M274.382 227.252s-.353 6.16-5.324 6.135c-4.971-.023-4.617-6.184-4.617-6.184h-.004s-.357 6.154-5.328 6.133c-4.971-.029-4.614-6.186-4.614-6.186h-.004s-.356 6.157-5.328 6.131c-4.971-.022-4.618-6.182-4.618-6.182h-.16s-.357 6.158-5.328 6.129c-4.971-.022-4.618-6.181-4.618-6.181h-.004s-.353 6.155-5.328 6.133c-4.967-.029-4.614-6.189-4.614-6.189"/><path fill="#FFF" d="M243.459 137.318l2.152-.018 2.732-14.444-7.16.065zM196.33 150.121l1.821-1.138-5.212-13.748-6.075 3.798zM171.594 184.792l1.06-1.871-11.137-9.598-3.533 6.23zM168.488 229.037l-.044-2.143-14.48-2.548.153 7.16zM293.182 147.229l1.85 1.098 9.829-10.934-6.158-3.663zM324.742 181.606l1.1 1.845 13.857-4.929-3.671-6.151zM334.779 224.932l.226 2.142 14.637 1.367-.74-7.125z"/><path fill="#CCC" d="M71.745 418.153l358.094-3.299-180.4-145.339zM63.062 412.195l141.597-118.44L60.943 182.204zM438.408 408.739L294.656 292.924 436.293 178.75z"/><path fill="#EE4645" d="M9.403 367.444h483.095v72.801H9.403z"/><g><text transform="translate(56.787 415.491)" fill="#FFF" font-family="'Lato-Bold'" font-size="34.622">hello@vakansivisual.com</text></g></svg>