<svg id="Layer_1" xmlns="http://www.w3.org/2000/svg" width="500" height="500" viewBox="0 0 500 500"><path fill="#37A2DB" d="M222.623 429.659c0 11.106-9.003 20.11-20.106 20.11-11.107 0-20.11-9.004-20.11-20.11s9.003-20.107 20.11-20.107c11.102 0 20.106 9.001 20.106 20.107zM224.828 500c0-24.467-9.99-44.302-22.312-44.302-12.325 0-22.315 19.835-22.315 44.302h44.627z"/><circle fill="#37A2DB" cx="301.708" cy="429.659" r="20.107"/><path fill="#37A2DB" d="M350.229 500c0-24.467-21.728-44.302-48.526-44.302-26.796 0-48.519 19.835-48.519 44.302h97.045z"/><ellipse fill="#CCC" cx="250" cy="173.036" rx="226.624" ry="173.037"/><path fill="#CCC" d="M333.555 393.884a3.882 3.882 0 0 1-3.88 3.88 3.882 3.882 0 0 1 0-7.762 3.882 3.882 0 0 1 3.88 3.882z"/><circle fill="#CCC" cx="345.382" cy="379.294" r="6.108"/><path fill="#CCC" d="M363.168 354.091c0 4.429-3.589 8.018-8.018 8.018s-8.018-3.589-8.018-8.018c0-4.424 3.589-8.018 8.018-8.018s8.018 3.594 8.018 8.018zM168.243 393.884c0 2.139 1.736 3.88 3.878 3.88a3.881 3.881 0 0 0 0-7.762 3.88 3.88 0 0 0-3.878 3.882z"/><circle fill="#CCC" cx="156.414" cy="379.294" r="6.108"/><path fill="#CCC" d="M138.629 354.091a8.018 8.018 0 1 0 16.035 0 8.018 8.018 0 0 0-16.035 0z"/><path fill-rule="evenodd" clip-rule="evenodd" fill="#FFF" d="M347.383 260.509c-2.923.324-5.525-.208-7.954-1.97-3.061-2.212-3.384-6.552-.426-9.304 3.244-3.02 7.816-3.604 11.763-2.056 1.091.43 1.312.081 1.472-.813.423-2.348.859-4.697 1.282-7.049 1.063-5.918 2.127-11.84 3.198-17.754.271-1.514-.062-1.854-1.623-1.773-1.477.076-2.948.136-4.429.152-4.216.043-8.432.076-12.649.084-1.486.002-2.973-.105-4.456-.118-.771-.001-1.543.101-2.49.169-.828 4.592-1.603 9.031-2.435 13.465-1.264 6.775-2.596 13.544-3.843 20.326-.735 4.03-3.336 5.738-6.679 6.644-2.878.782-5.695.501-8.218-1.021-4.271-2.578-4.692-6.756-1.25-10.015 3.135-2.965 7.083-3.3 11.155-2.076.318.098.593.335 1.12.643.258-.566.61-1.062.708-1.602 2.244-12.4 4.449-24.812 6.692-37.209.427-2.328.509-2.247 2.86-2.166 2.967.102 5.942.031 8.913.081 2.768.042 5.54.177 8.313.22 3.201.045 6.402.014 9.604.051 1.532.018 3.062.134 4.59.186.863.027 1.181.412 1.001 1.271-.216 1.041-.367 2.09-.557 3.137-2.465 13.707-4.922 27.421-7.412 41.129-.788 4.37-3.678 6.857-8.25 7.368z"/><g fill-rule="evenodd" clip-rule="evenodd" fill="#FFF"><path d="M204.066 219.491c-6.259-3.903-10.078-9.282-11.596-16.463 3.818-2.207 7.637-4.416 11.596-6.707v23.17zM228.559 177.727c5.499 2.624 10.61 9.924 11.494 16.409-3.766 2.173-7.556 4.363-11.494 6.633v-23.042zM192.072 198.446c.201-7.461 3.015-13.457 8.454-18.304 3.857 2.226 7.658 4.417 11.632 6.712l-20.086 11.592zM240.549 198.643c-.19 7.474-3.04 13.431-8.433 18.319a14072.84 14072.84 0 0 0-11.639-6.716c6.715-3.884 13.292-7.684 20.072-11.603zM208.325 208.026c6.693 3.869 13.273 7.669 19.906 11.502-4.938 3.43-14.523 4.269-19.906 1.801v-13.303zM204.26 177.495c6.284-3.394 12.618-4.019 19.208-2.069.345.104.838.565.842.867.053 4.189.039 8.382.039 12.796l-20.089-11.594z"/></g><g fill="#FFF"><path d="M293.689 184.024l-5.247-2.102s-5.693 2.704-8.113 8.749c-2.42 6.044 2.215 12.912.401 18.818 5.451-3.005 16.458-12.991 12.959-25.465zM295.035 153.93l12.675 5.074-13.984 22.636-3.82-1.527z"/></g><g fill="#FFF"><path d="M218.315 86.433c5.044 1.3 10.187-1.74 11.483-6.79l3.822-14.892c1.303-5.047-1.74-10.19-6.788-11.488-5.048-1.296-10.187 1.745-11.487 6.796l-3.825 14.887c-1.296 5.053 1.744 10.193 6.795 11.487z"/><path d="M237.953 79.87l-4.001-1.024s-2.244 15.056-16.524 11.385c-14.284-3.669-8.993-17.94-8.993-17.94l-4.188-1.077s-6.718 16.533 10.466 22.113l-3.29 12.818a1.775 1.775 0 0 0 1.274 2.156 1.778 1.778 0 0 0 2.156-1.273l3.287-12.81c17.897 3.537 19.813-14.348 19.813-14.348zM219.101 112.787l-14.178-3.644a3.691 3.691 0 1 0-1.836 7.153l14.171 3.642a3.69 3.69 0 0 0 4.498-2.656 3.694 3.694 0 0 0-2.655-4.495z"/></g><g fill-rule="evenodd" clip-rule="evenodd" fill="#FFF"><path d="M234.142 290.299c-3.671-.331-7.605-.274-11.346-1.106-6.933-1.547-11.821-9.067-10.702-15.714 1.233-7.33 7.612-12.724 14.883-12.393 3.642.159 7.302.444 10.898 1.012 8.193 1.289 13.499 9.976 11.212 17.929-.648 2.255-2.128 2.554-4.055 2.286-2.269-.313-2.29-1.661-1.958-3.574 1.11-6.355-.697-9.244-7.059-10.498-3.533-.697-7.256-.881-10.853-.676-3.89.232-6.911 3.582-7.197 7.101-.3 3.565 2.085 7.021 5.886 8.264 2.131.698 4.674.673 6.429 1.867 1.635 1.116 2.467 3.409 3.862 5.502z"/><path d="M246.206 262.76c6.989.908 13.738-.127 18.958 5.248 3.664 3.772 5.14 10.236 3.026 15.442-1.955 4.819-8.112 9.11-13.02 8.859-3.769-.193-7.552-.489-11.282-1.025-8.503-1.219-13.851-9.778-11.48-17.985.648-2.257 2.138-2.529 4.064-2.275 2.11.281 2.089 1.571 1.875 3.304-.881 7.144 1.631 10.332 8.75 11.228 2.497.313 5.02.594 7.527.58 4.741-.035 8.049-3.089 8.419-7.503.362-4.255-2.216-8.296-6.683-8.609-4.835-.339-7.417-2.996-10.154-7.264z"/></g><g fill-rule="evenodd" clip-rule="evenodd" fill="#FFF"><path d="M148.89 143.643l6.538-40.497-43.877 7.304-1.824 11.349zM157.178 117.127l-1.68-.271-2.332 14.44 1.68.27a7.314 7.314 0 1 0 2.332-14.439zM114.169 126.8l-1.948 12.07 9.123 1.47 1.405-8.702z"/><path d="M123.13 129.265l1.05-6.506-9.12-1.47-.507 3.14z"/></g><g fill-rule="evenodd" clip-rule="evenodd" fill="#FFF"><path d="M289.995 106.603l-3.896 4.199-6.348-5.683-3.716 7.775-5.245-2.3 3.519-8.14-8.091-.756.577-5.67 7.961.86-1.789-8.598 6.175-1.285 1.786 8.6 6.96-3.957 2.78 4.967-7.112 3.915zM321.108 100.137l-3.892 4.199-6.348-5.685-3.716 7.776-5.241-2.301 3.519-8.142-8.087-.755.577-5.669 7.954.859-1.79-8.598 6.175-1.284 1.79 8.602 6.957-3.958 2.786 4.965-7.119 3.917zM352.234 93.669l-3.897 4.199-6.344-5.686-3.713 7.778-5.252-2.302 3.523-8.143-8.087-.753.575-5.672 7.956.862-1.785-8.598 6.175-1.285 1.785 8.6 6.957-3.957 2.787 4.965-7.116 3.917z"/></g><path fill="#FFF" d="M132.88 251.915l-1.962-5.31c-2.779.646-5.157.853-7.141.609-1.98-.239-3.927-1.094-5.844-2.55-1.917-1.463-3.48-3.533-4.695-6.218l4.966-2.979c1.472 2.701 2.974 4.527 4.513 5.479 2.191 1.335 4.375 1.729 6.538 1.17L123 225.208c-2.335.387-4.886.371-7.644-.063-2.039-.321-3.825-1.146-5.357-2.479-1.536-1.336-2.695-3.067-3.48-5.191-1.398-3.777-1.194-7.334.617-10.662 1.212-2.236 3.511-4.187 6.9-5.846l-.94-2.534 3.132-1.158.937 2.538c3.199-.848 5.984-.848 8.355-.005 3.037 1.073 5.411 3.202 7.13 6.392l-5.182 2.857c-1.092-1.971-2.336-3.328-3.741-4.068-1.405-.744-3.04-.979-4.903-.686l5.671 15.318c2.923-.321 4.886-.459 5.893-.402 1.92.118 3.597.498 5.027 1.159a11.41 11.41 0 0 1 3.776 2.828c1.096 1.231 1.948 2.683 2.568 4.354 1.363 3.678 1.328 7.182-.102 10.509-1.434 3.325-3.977 5.765-7.63 7.318l1.987 5.372-3.134 1.156zm-17.208-46.518c-1.947 1.079-3.272 2.51-3.969 4.288-.698 1.777-.705 3.581-.025 5.413.667 1.809 1.737 3.141 3.203 3.982 1.465.845 3.54 1.187 6.231 1.018l-5.44-14.701zm16.711 35.562c1.977-1.021 3.354-2.546 4.132-4.583.778-2.031.753-4.176-.088-6.446-.711-1.925-1.761-3.298-3.149-4.112-1.389-.818-3.681-1.162-6.876-1.034l5.981 16.175z"/><g fill-rule="evenodd" clip-rule="evenodd" fill="#FFF"><path d="M380.231 175.646l-13.443-11.283-3.05-17.284 8.778-15.2 16.492-6.001 16.497 6.001 8.771 15.2-3.048 17.284-13.441 11.283z"/><path d="M389.008 170.667l-23.023 6.171 6.169-23.026z"/></g></svg>