<svg id="Layer_1" xmlns="http://www.w3.org/2000/svg" width="500" height="500" viewBox="0 0 500 500"><path fill-rule="evenodd" clip-rule="evenodd" fill="#37A2DB" d="M59.383 144.107C26.589 144.107 0 170.698 0 203.494s26.589 59.385 59.383 59.385c32.798 0 59.386-26.589 59.386-59.385.001-32.796-26.587-59.387-59.386-59.387zm9.783 68.415l-4.664 3.315-5.052-6.846-5.218 6.846-4.662-3.315 5.1-7.247-7.76-2.389 1.716-5.418 7.607 2.455v-8.771h6.305v8.771l7.608-2.455 1.712 5.418-7.759 2.389 5.067 7.247z"/><path fill="#37A2DB" d="M58.34 355.893v-3.881c-1.956-.244-3.55-.68-4.776-1.303-1.229-.627-2.285-1.633-3.177-3.029-.892-1.393-1.412-3.1-1.558-5.111l3.943-.732c.303 2.08.837 3.615 1.609 4.592 1.1 1.379 2.424 2.148 3.959 2.307v-12.35c-1.613-.303-3.257-.922-4.94-1.857a7.223 7.223 0 0 1-2.885-2.867c-.673-1.219-1.01-2.609-1.01-4.162 0-2.758.985-4.996 2.958-6.705 1.32-1.15 3.281-1.852 5.876-2.115v-1.852h2.308v1.852c2.275.217 4.085.879 5.419 1.988 1.712 1.406 2.739 3.342 3.09 5.797l-4.047.604c-.234-1.521-.717-2.688-1.449-3.504-.735-.811-1.736-1.346-3.013-1.605v11.189c1.971.49 3.276.869 3.916 1.145 1.223.531 2.217 1.174 2.981 1.941a7.761 7.761 0 0 1 1.777 2.713c.414 1.049.618 2.188.618 3.41 0 2.686-.859 4.93-2.589 6.725-1.726 1.799-3.959 2.76-6.703 2.891v3.922H58.34zm0-33.981c-1.521.23-2.728.836-3.602 1.816-.877.971-1.316 2.131-1.316 3.469 0 1.324.374 2.43 1.123 3.32.746.893 2.011 1.6 3.795 2.133v-10.738zm2.308 26.822c1.521-.188 2.783-.84 3.774-1.959.995-1.119 1.492-2.514 1.492-4.164 0-1.406-.351-2.541-1.057-3.393-.702-.857-2.106-1.621-4.208-2.299v11.815z"/><path fill-rule="evenodd" clip-rule="evenodd" fill="#8DC541" d="M250 144.107c-32.796 0-59.386 26.591-59.386 59.387s26.59 59.385 59.386 59.385c32.793 0 59.387-26.589 59.387-59.385S282.793 144.107 250 144.107zm-5.752 68.415l-4.663 3.315-5.051-6.846-5.218 6.846-4.666-3.315 5.101-7.247-7.757-2.386 1.717-5.421 7.606 2.455v-8.771h6.3v8.771l7.611-2.455 1.713 5.421-7.756 2.386 5.063 7.247zm31.065 0l-4.665 3.315-5.047-6.846-5.221 6.846-4.665-3.315 5.103-7.247-7.759-2.386 1.715-5.421 7.606 2.455v-8.771h6.304v8.771l7.608-2.455 1.718 5.421-7.762 2.386 5.065 7.247z"/><path fill="#8DC541" d="M233.099 355.893v-3.881c-1.956-.244-3.551-.68-4.777-1.303-1.229-.627-2.284-1.633-3.177-3.029-.891-1.393-1.412-3.1-1.557-5.111l3.943-.732c.303 2.08.837 3.615 1.608 4.592 1.101 1.379 2.424 2.148 3.96 2.307v-12.35c-1.613-.303-3.258-.922-4.94-1.857a7.223 7.223 0 0 1-2.885-2.867c-.674-1.219-1.01-2.609-1.01-4.162 0-2.758.985-4.996 2.958-6.705 1.32-1.15 3.279-1.852 5.876-2.115v-1.852h2.308v1.852c2.274.217 4.085.879 5.418 1.988 1.712 1.406 2.74 3.342 3.091 5.797l-4.047.604c-.234-1.521-.717-2.688-1.45-3.504-.735-.811-1.735-1.346-3.012-1.605v11.189c1.971.49 3.276.869 3.915 1.145 1.224.531 2.218 1.174 2.981 1.941a7.792 7.792 0 0 1 1.778 2.713c.412 1.049.618 2.188.618 3.41 0 2.686-.859 4.93-2.589 6.725-1.728 1.799-3.961 2.76-6.703 2.891v3.922h-2.307zm0-33.981c-1.521.23-2.729.836-3.602 1.816-.877.971-1.318 2.131-1.318 3.469 0 1.324.374 2.43 1.125 3.32.746.893 2.01 1.6 3.795 2.133v-10.738zm2.308 26.822c1.521-.188 2.783-.84 3.772-1.959.995-1.119 1.493-2.514 1.493-4.164 0-1.406-.351-2.541-1.058-3.393-.702-.857-2.106-1.621-4.208-2.299v11.815zM264.812 355.893v-3.881c-1.959-.244-3.551-.68-4.777-1.303-1.226-.627-2.284-1.633-3.175-3.029-.896-1.393-1.414-3.1-1.562-5.111l3.942-.732c.306 2.08.84 3.615 1.613 4.592 1.099 1.379 2.422 2.148 3.958 2.307v-12.35c-1.612-.303-3.256-.922-4.94-1.857a7.23 7.23 0 0 1-2.885-2.867c-.671-1.219-1.012-2.609-1.012-4.162 0-2.758.986-4.996 2.961-6.705 1.317-1.15 3.281-1.852 5.876-2.115v-1.852h2.305v1.852c2.279.217 4.086.879 5.424 1.988 1.71 1.406 2.737 3.342 3.088 5.797l-4.05.604c-.233-1.521-.717-2.688-1.444-3.504-.738-.811-1.74-1.346-3.018-1.605v11.189c1.975.49 3.276.869 3.918 1.145 1.221.531 2.218 1.174 2.981 1.941a7.715 7.715 0 0 1 1.775 2.713c.417 1.049.621 2.188.621 3.41 0 2.686-.86 4.93-2.59 6.725-1.725 1.799-3.958 2.76-6.706 2.891v3.922h-2.303zm0-33.981c-1.521.23-2.727.836-3.602 1.816-.881.971-1.318 2.131-1.318 3.469 0 1.324.377 2.43 1.125 3.32.742.893 2.009 1.6 3.795 2.133v-10.738zm2.305 26.822c1.521-.188 2.783-.84 3.775-1.959.997-1.119 1.491-2.514 1.491-4.164 0-1.406-.352-2.541-1.054-3.393-.702-.857-2.106-1.621-4.213-2.299v11.815z"/><g><path fill-rule="evenodd" clip-rule="evenodd" fill="#EE4645" d="M440.616 144.107c-32.802 0-59.385 26.591-59.385 59.387s26.583 59.385 59.385 59.385c32.79 0 59.384-26.589 59.384-59.385s-26.594-59.387-59.384-59.387zm-21.979 68.415l-4.658 3.315-5.055-6.846-5.215 6.846-4.663-3.315 5.101-7.247-7.762-2.386 1.718-5.421 7.608 2.455v-8.771h6.299v8.771l7.608-2.455 1.715 5.421-7.759 2.386 5.063 7.247zm31.755 0l-4.665 3.315-5.05-6.846-5.22 6.846-4.655-3.315 5.098-7.247-7.757-2.386 1.713-5.421 7.611 2.455v-8.771h6.298v8.771l7.606-2.455 1.72 5.421-7.759 2.386 5.06 7.247zm31.755 0l-4.66 3.315-5.053-6.846-5.215 6.846-4.668-3.315 5.103-7.247-7.759-2.386 1.713-5.421 7.61 2.455v-8.771h6.299v8.771l7.611-2.455 1.715 5.421-7.756 2.386 5.06 7.247z"/><path fill="#EE4645" d="M405.79 355.893v-3.881c-1.954-.244-3.549-.68-4.775-1.303-1.229-.627-2.284-1.633-3.177-3.029-.891-1.393-1.412-3.1-1.557-5.111l3.942-.732c.301 2.08.835 3.615 1.608 4.592 1.099 1.379 2.424 2.148 3.958 2.307v-12.35c-1.613-.303-3.256-.922-4.94-1.857a7.23 7.23 0 0 1-2.885-2.867c-.672-1.219-1.007-2.609-1.007-4.162 0-2.758.981-4.996 2.955-6.705 1.323-1.15 3.282-1.852 5.877-2.115v-1.852h2.31v1.852c2.274.217 4.086.879 5.419 1.988 1.712 1.406 2.737 3.342 3.088 5.797l-4.045.604c-.233-1.521-.717-2.688-1.45-3.504-.734-.811-1.734-1.346-3.012-1.605v11.189c1.969.49 3.276.869 3.915 1.145 1.224.531 2.216 1.174 2.981 1.941a7.792 7.792 0 0 1 1.778 2.713c.412 1.049.615 2.188.615 3.41 0 2.686-.859 4.93-2.589 6.725-1.726 1.799-3.959 2.76-6.701 2.891v3.922h-2.308zm0-33.981c-1.521.23-2.728.836-3.603 1.816-.875.971-1.315 2.131-1.315 3.469 0 1.324.374 2.43 1.122 3.32.748.893 2.013 1.6 3.796 2.133v-10.738zm2.31 26.822c1.521-.188 2.783-.84 3.772-1.959.995-1.119 1.493-2.514 1.493-4.164 0-1.406-.351-2.541-1.058-3.393-.702-.857-2.106-1.621-4.208-2.299v11.815zM439.57 355.893v-3.881c-1.956-.244-3.549-.68-4.775-1.303-1.23-.627-2.284-1.633-3.18-3.029-.89-1.393-1.409-3.1-1.557-5.111l3.943-.732c.303 2.08.837 3.615 1.607 4.592 1.102 1.379 2.427 2.148 3.961 2.307v-12.35c-1.613-.303-3.259-.922-4.94-1.857a7.23 7.23 0 0 1-2.885-2.867c-.674-1.219-1.01-2.609-1.01-4.162 0-2.758.984-4.996 2.958-6.705 1.32-1.15 3.279-1.852 5.877-2.115v-1.852h2.308v1.852c2.273.217 4.085.879 5.418 1.988 1.715 1.406 2.74 3.342 3.091 5.797l-4.047.604c-.234-1.521-.718-2.688-1.45-3.504-.732-.811-1.735-1.346-3.012-1.605v11.189c1.971.49 3.276.869 3.917 1.145 1.222.531 2.216 1.174 2.981 1.941a7.77 7.77 0 0 1 1.775 2.713c.412 1.049.618 2.188.618 3.41 0 2.686-.859 4.93-2.589 6.725-1.728 1.799-3.961 2.76-6.703 2.891v3.922h-2.306zm0-33.981c-1.521.23-2.729.836-3.603 1.816-.877.971-1.314 2.131-1.314 3.469 0 1.324.371 2.43 1.121 3.32.746.893 2.013 1.6 3.796 2.133v-10.738zm2.308 26.822c1.521-.188 2.782-.84 3.774-1.959s1.491-2.514 1.491-4.164c0-1.406-.352-2.541-1.059-3.393-.702-.857-2.106-1.621-4.207-2.299v11.815zM473.351 355.893v-3.881c-1.959-.244-3.552-.68-4.777-1.303-1.229-.627-2.284-1.633-3.178-3.029-.893-1.393-1.412-3.1-1.56-5.111l3.943-.732c.306 2.08.84 3.615 1.61 4.592 1.102 1.379 2.424 2.148 3.961 2.307v-12.35c-1.613-.303-3.259-.922-4.94-1.857a7.23 7.23 0 0 1-2.885-2.867c-.674-1.219-1.013-2.609-1.013-4.162 0-2.758.987-4.996 2.961-6.705 1.318-1.15 3.279-1.852 5.877-2.115v-1.852h2.305v1.852c2.276.217 4.086.879 5.421 1.988 1.712 1.406 2.74 3.342 3.091 5.797l-4.05.604c-.234-1.521-.718-2.688-1.447-3.504-.735-.811-1.737-1.346-3.015-1.605v11.189c1.974.49 3.276.869 3.918 1.145 1.221.531 2.218 1.174 2.981 1.941a7.743 7.743 0 0 1 1.775 2.713c.414 1.049.62 2.188.62 3.41 0 2.686-.859 4.93-2.589 6.725-1.728 1.799-3.961 2.76-6.706 2.891v3.922h-2.303zm0-33.981c-1.521.23-2.729.836-3.603 1.816-.88.971-1.317 2.131-1.317 3.469 0 1.324.374 2.43 1.124 3.32.743.893 2.01 1.6 3.796 2.133v-10.738zm2.304 26.822c1.521-.188 2.783-.84 3.775-1.959.994-1.119 1.49-2.514 1.49-4.164 0-1.406-.351-2.541-1.056-3.393-.702-.857-2.106-1.621-4.21-2.299v11.815z"/></g></svg>