<svg id="Layer_1" xmlns="http://www.w3.org/2000/svg" width="500" height="500" viewBox="0 0 500 500"><path fill="#37A2DB" d="M321.867 194.19c0 36.315-29.444 65.767-65.771 65.767-36.331 0-65.774-29.451-65.774-65.767 0-36.338 29.444-65.778 65.774-65.778 36.327.001 65.771 29.441 65.771 65.778z"/><path fill="#8DC541" d="M155.355 218.804c6.322-4.618 9.847-10.768 10.854-18.853.069-.559.321-.996.542-1.302v-7.532l-.283-1.328c-.222-1.046-.444-2.096-.711-3.131-1.888-7.345-5.593-12.684-11.322-16.309l-.568-.357-.202-.642c-6.03-19.011-17.128-33.701-32.988-43.668-11.318-7.1-23.758-10.703-36.979-10.703l-1.47.021c-31.783.621-58.938 21.951-69.183 54.35l-.195.62-.546.361C5.583 174.757 1.637 181.204.575 189.49A2.716 2.716 0 0 1 0 190.807l.115 8.43c.204.52.433 1.122.54 1.8.617 4.076 2.056 7.824 4.282 11.14 4.503 6.706 10.994 10.137 19.285 10.191 2.803 0 4.556-1.717 4.729-4.596.035-.577.025-1.169.017-1.757l-.02-11.869c-.023-9.689-.047-19.382.086-29.072.054-3.954-.512-6.529-3.566-7.99l-1.544-.739.621-1.587c7.898-20.328 29.184-40.833 58.925-40.833 1.176 0 2.361.032 3.555.101 24.1 1.356 46.776 18.178 55.147 40.901l.595 1.62-1.579.707c-2.584 1.144-3.587 3.146-3.45 6.887.143 3.828.108 7.709.078 11.464a610.932 610.932 0 0 0-.025 4.884l-.011 7.669c-.009 6.273-.018 12.547.021 18.816.027 3.788 1.591 5.357 5.402 5.408l1.168.003 2.347-.003c1.958-.519 6.735-2.016 8.637-3.578z"/><path fill="none" d="M83.376 134.754c20.869 0 39.433 9.747 51.481 24.906-9.401-17.561-28.208-30.036-48.096-31.154a52.801 52.801 0 0 0-3.292-.094c-24.301 0-42.5 14.769-51.536 31.189 12.054-15.128 30.6-24.847 51.443-24.847z"/><path fill="#8DC541" d="M133.314 217c-.04-6.281-.03-12.565-.021-18.845l.011-7.666c0-1.641.013-3.279.027-4.996.029-3.68.059-7.482-.078-11.19-.063-1.786-.244-6.728 3.907-9.867-.68-1.634-1.466-3.214-2.302-4.776-12.048-15.159-30.612-24.906-51.481-24.906-20.844 0-39.389 9.718-51.442 24.848-.867 1.577-1.681 3.171-2.377 4.766 4.065 3.221 3.997 8.2 3.966 10.765-.133 9.523-.112 19.22-.088 28.596v.408l.02 11.811c.011.693.017 1.396-.025 2.093-.316 5.277-4.017 8.816-9.237 8.816-.375-.004-.732-.054-1.106-.065C33.231 250.031 56.39 266.3 83.377 266.3c26.948 0 50.085-16.226 60.248-39.429h-.481c-6.294-.091-9.787-3.591-9.83-9.871z"/><path fill-rule="evenodd" clip-rule="evenodd" fill="#FFF" d="M292.463 214.958c-.347 1.292-.617 2.612-1.046 3.878-2.204 6.565-6.948 10.339-13.546 11.674-6.356 1.292-12.129-.494-17.327-4.228-1.594-1.154-3.116-2.406-4.892-3.777-.497.584-.952 1.205-1.486 1.742-2.586 2.619-5.652 4.618-9.145 5.617-6.47 1.854-12.59.92-18.225-3.008-4.278-2.969-6.604-6.991-7.069-12.226.258.281.527.552.779.837 1.335 1.526 2.783 2.915 4.693 3.716 1.328.562 2.63.761 3.88-.202 1.439-1.111 2.875-2.222 4.318-3.341 1.8-1.392 3.488-2.965 5.417-4.155 5.312-3.283 11.612-2.294 15.824 2.316.404.447.819.895 1.331 1.45.563-.671 1.107-1.285 1.62-1.923 1.861-2.312 4.325-3.319 7.232-3.575 5.127-.461 9.131 1.678 12.685 5.086 1.342 1.288 2.752 2.54 4.285 3.579 2.745 1.854 4.318 1.696 6.844-.472 1.172-1.01 2.269-2.1 3.401-3.149l.427.161z"/><path fill="#37A2DB" d="M232.527 342.646c0 36.312-29.453 65.764-65.778 65.764-36.327 0-65.774-29.451-65.774-65.764 0-36.338 29.447-65.781 65.774-65.781 36.325 0 65.778 29.444 65.778 65.781z"/><path fill="#FFF" d="M225.235 333.256c-.887-1.006-1.804-2.049-2.204-3.127-3.981-10.765-13.312-17.457-24.348-17.457h-.208c-10.972.076-19.262 5.653-23.997 16.137h-16.087c-.13-.257-.307-.624-.489-.981-5.379-10.732-14.971-16.165-26.637-15.115-10.112.931-18.531 8.366-21.98 19.39-.175.56-.734 1.072-1.331 1.605-.639.585-1.302 1.184-1.624 1.977-.631 1.569-.686 3.644-.125 5.036.364.909 1.059 1.663 1.733 2.381.666.722 1.295 1.396 1.53 2.146 3.49 11.237 13.464 18.788 24.821 18.788 3.35 0 6.645-.668 9.796-1.984 9.682-4.048 15.129-11.89 16.188-23.304.335-3.618 2.408-5.451 6.152-5.451h.245c3.582.068 5.603 1.865 6.005 5.335.151 1.317.339 2.594.571 3.803 2.3 11.983 11.764 20.801 23.019 21.425 13.091.667 23.407-6.505 27.319-19.012.332-1.063 1.17-2.11 1.98-3.138 1.127-1.411 2.195-2.753 2.11-4.243-.087-1.541-1.279-2.902-2.439-4.211zm-26.686 25.23c-11.124 0-20.247-9.021-20.338-20.101-.042-5.356 2.031-10.422 5.835-14.26 3.885-3.91 9.076-6.064 14.614-6.064h.191c5.408.04 10.461 2.179 14.226 6.018 3.764 3.842 5.808 8.936 5.755 14.34-.103 11.259-9.014 20.067-20.283 20.067zm-43.818-19.873c-.291 11.146-9.26 19.873-20.427 19.873h-.146c-11.125-.072-20.122-9.188-20.052-20.303.07-11.291 9.033-20.133 20.409-20.133l.352.011c5.372.08 10.429 2.31 14.235 6.273 3.77 3.937 5.768 9.002 5.629 14.279z"/><path fill="#EE4645" d="M468.151 194.19c0 36.315-29.447 65.767-65.774 65.767-36.326 0-65.777-29.451-65.777-65.767 0-36.338 29.451-65.778 65.777-65.778 36.327.001 65.774 29.441 65.774 65.778z"/><g fill-rule="evenodd" clip-rule="evenodd" fill="#EE4645"><path d="M413.113 122.803c-1.447-3.863-2.323-6.894-3.662-9.7-5.512-11.468.015-20.793 12.951-21.479 9.098-.476 16.306 4.069 23.099 9.321 2.146 1.652 4.173 3.716 5.635 5.985 6.645 10.375 16.811 15.043 28.115 18.236 4.139 1.168 8.243 2.878 11.948 5.046 7.132 4.167 10.188 11.118 8.211 17.222-2.717 8.387-8.922 12.662-17.785 12.171-4.019-.216-8.03-.588-13.325-.981-12.775-19.422-31.843-31.842-55.187-35.821z"/><path d="M460.753 112.118c4.949-5.188 9.892-8.012 16.396-8.456.181 1.187.635 2.637.386 2.777a300.765 300.765 0 0 1-14.278 7.15c-.408.195-1.371-.775-2.504-1.471z"/></g><path fill="#8DC541" d="M398.567 374.583c-3.459-1.23-7.186-1.825-11.398-1.825l-.715.003c-3.658.047-7.479.231-11.367.549-1.227.098-2.604.422-4.202.992-1.028.356-1.19.566-1.198.573-.014.021-.147.3-.039 1.584.205 2.355.469 4.704.758 7.254l.808 7.363-3.424-1.35a18.814 18.814 0 0 0-1.385-.473c-1.126-.36-2.287-.729-3.298-1.54-3.182-2.562-6.894-5.631-10.32-8.957-2.153-2.093-4.145-4.357-6.064-6.555-.793-.898-1.583-1.8-2.384-2.691l-.04-.043-.375.213c6.021 9.905 12.925 20.782 22.882 28.772a39.733 39.733 0 0 0 4.029 2.821c.025.015.047.025.072.039.88.545 1.757 1.043 2.622 1.458.21.101.419.177.628.274.689.31 1.386.627 2.074.858.935.324 1.869.584 2.811.771 8.401 1.682 12.976-.509 16.31-8.059 3.254-7.374 3.712-15.147 3.729-21.774.024.024-.055-.099-.514-.257z"/><path fill="#8DC541" d="M338.927 370.034l-1.184-1.955 7.554-4.308 2.355 2.767c.809.895 1.609 1.812 2.414 2.728 1.868 2.128 3.798 4.332 5.825 6.302 3.29 3.193 6.905 6.18 10.008 8.684.025.021.061.043.094.068l-.011-.104c-.296-2.59-.563-4.985-.769-7.381-.321-3.73.815-5.556 4.191-6.735 1.963-.692 3.705-1.093 5.321-1.227 3.989-.32 7.911-.509 11.659-.562l.783-.004c2.799 0 5.407.268 7.893.754a65.445 65.445 0 0 0 5.562-26.413c0-36.338-29.447-65.781-65.771-65.781-36.33 0-65.774 29.443-65.774 65.781 0 36.312 29.444 65.764 65.774 65.764 10.368 0 20.144-2.468 28.87-6.746-11.054-8.984-18.356-21.008-24.794-31.632z"/></svg>