<svg id="Layer_1" xmlns="http://www.w3.org/2000/svg" width="500" height="500" viewBox="0 0 500 500"><g fill="#FFF"><path d="M286.49 222.868L224.055 67.673h26.231l36.204 94.443 36.201-94.443h26.233zM149.838 67.957h26.23l71.228 183.641 14.209-37.086 12.718 31.61-26.927 66.229zM31.751 386.374l-16.267 45.874L0 386.374h2.886l12.783 37.862 13.269-37.862zM39.915 415.836l-5.962 14.729H30.99l18.595-45.73 18.512 45.73h-2.958l-5.959-14.729-.976-2.582-8.619-21.105-8.624 21.105zM108.009 430.565h-3.668l-20.994-21.138-1.238 1.122v20.016h-2.811v-44.191h2.811v20.577l20.879-20.577h3.86l-21.586 21.293zM125.392 415.836l-5.957 14.729h-2.966l18.597-45.73 18.512 45.73h-2.957l-5.963-14.729-.968-2.582-8.624-21.105-8.622 21.105zM203.541 432.327l-36.736-39.653v37.891h-2.964v-44.792l36.963 39.399v-38.798h2.737zM241.881 417.812c.101 3.604-1.169 6.715-3.81 9.345-2.631 2.616-5.788 3.959-9.461 4.008-2.974.052-5.397-.479-7.271-1.577-2.096-1.229-3.935-3.39-5.51-6.469l-.716-1.391 2.399-1.244.606 1.197c1.268 2.529 2.707 4.322 4.307 5.398 1.7 1.1 3.851 1.575 6.442 1.424 2.555-.15 4.812-1.094 6.771-2.831 1.964-1.73 3.065-3.888 3.313-6.466.027-.323.038-.637.038-.938 0-3.073-1.957-5.645-5.877-7.723l-10.123-5.319c-3.202-1.7-4.924-4.233-5.172-7.605-.231-3.229.678-5.979 2.718-8.247 2.035-2.276 4.619-3.438 7.735-3.487 4.373-.075 7.811 1.461 10.312 4.609l1.121 1.421-1.906 1.654-1.386-1.691c-1.944-2.371-4.421-3.56-7.444-3.56-.321 0-.66.015-1.008.039-2.324.174-4.19 1.188-5.614 3.036-1.321 1.729-1.921 3.644-1.791 5.74.07 1.401.632 2.729 1.684 3.978.795.978 1.696 1.715 2.692 2.215l10.252 5.256c4.365 2.227 6.595 5.302 6.699 9.228M255.893 386.374h2.881v44.191h-2.881zM328.587 386.374l-16.267 45.874-15.479-45.874h2.888l12.781 37.862 13.263-37.862zM342.45 386.374h2.884v44.191h-2.884zM386.634 417.812c.101 3.604-1.169 6.715-3.808 9.345-2.637 2.616-5.79 3.959-9.465 4.008-2.973.052-5.395-.479-7.271-1.577-2.093-1.229-3.933-3.39-5.508-6.469l-.716-1.391 2.397-1.244.605 1.197c1.27 2.529 2.71 4.322 4.303 5.398 1.705 1.1 3.852 1.575 6.449 1.424 2.553-.15 4.809-1.094 6.768-2.831 1.963-1.73 3.068-3.888 3.315-6.466.026-.323.037-.637.037-.938 0-3.071-1.956-5.643-5.876-7.721l-10.125-5.319c-3.2-1.7-4.924-4.233-5.17-7.605-.23-3.229.676-5.979 2.715-8.247 2.039-2.276 4.615-3.438 7.734-3.487 4.375-.075 7.814 1.461 10.313 4.609l1.122 1.421-1.906 1.654-1.387-1.691c-1.943-2.371-4.42-3.56-7.444-3.56-.317 0-.659.015-1.012.039-2.32.174-4.192 1.188-5.608 3.036-1.322 1.729-1.921 3.644-1.793 5.74.067 1.401.635 2.729 1.684 3.978.796.978 1.697 1.715 2.689 2.215l10.258 5.256c4.363 2.225 6.597 5.3 6.7 9.226M427.37 418.037c0 3.8-1.445 6.937-4.344 9.419-2.727 2.301-6.054 3.538-9.975 3.709-4.126.201-7.674-1.019-10.642-3.653-2.977-2.639-4.467-5.937-4.467-9.889v-31.249h2.734v30.991c0 3.4 1.208 6.133 3.613 8.216 2.326 2 5.229 2.953 8.701 2.848 3.254-.101 5.969-1.088 8.154-2.963 2.322-2.021 3.484-4.688 3.484-7.99v-31.102h2.736v31.663h.006zM446.438 415.836l-5.957 14.729h-2.964l18.592-45.73 18.515 45.73h-2.955l-5.959-14.729-.973-2.582-8.628-21.105-8.617 21.105zM500 430.565h-13.877v-44.191h2.892v41.532H500z"/></g></svg>