<?xml version="1.0" encoding="utf-8"?>
<!-- Generator: Adobe Illustrator 16.0.0, SVG Export Plug-In . SVG Version: 6.00 Build 0)  -->
<!DOCTYPE svg PUBLIC "-//W3C//DTD SVG 1.1//EN" "http://www.w3.org/Graphics/SVG/1.1/DTD/svg11.dtd">
<svg version="1.1" id="Layer_1" xmlns="http://www.w3.org/2000/svg" xmlns:xlink="http://www.w3.org/1999/xlink" x="0px" y="0px"
	 width="500px" height="500px" viewBox="0 0 500 500" enable-background="new 0 0 500 500" xml:space="preserve">
<g>
	<path fill="#37A2DB" d="M222.623,429.659c0,11.106-9.003,20.11-20.106,20.11c-11.107,0-20.11-9.004-20.11-20.11
		s9.003-20.107,20.11-20.107C213.619,409.552,222.623,418.553,222.623,429.659z"/>
	<path fill="#37A2DB" d="M224.828,500L224.828,500c0-24.467-9.99-44.302-22.312-44.302c-12.325,0-22.315,19.835-22.315,44.302l0,0
		H224.828z"/>
	<circle fill="#37A2DB" cx="301.708" cy="429.659" r="20.107"/>
	<path fill="#37A2DB" d="M350.229,500L350.229,500c0-24.467-21.728-44.302-48.526-44.302c-26.796,0-48.519,19.835-48.519,44.302l0,0
		H350.229z"/>
	<ellipse fill="#CCCCCC" cx="250" cy="173.036" rx="226.624" ry="173.037"/>
	<path fill="#CCCCCC" d="M333.555,393.884c0,2.139-1.737,3.88-3.88,3.88c-2.141,0-3.878-1.741-3.878-3.88
		c0-2.144,1.737-3.882,3.878-3.882C331.817,390.002,333.555,391.74,333.555,393.884z"/>
	<circle fill="#CCCCCC" cx="345.382" cy="379.294" r="6.108"/>
	<path fill="#CCCCCC" d="M363.168,354.091c0,4.429-3.589,8.018-8.018,8.018s-8.018-3.589-8.018-8.018
		c0-4.424,3.589-8.018,8.018-8.018S363.168,349.667,363.168,354.091z"/>
	<path fill="#CCCCCC" d="M168.243,393.884c0,2.139,1.736,3.88,3.878,3.88s3.878-1.741,3.878-3.88c0-2.144-1.737-3.882-3.878-3.882
		S168.243,391.74,168.243,393.884z"/>
	<circle fill="#CCCCCC" cx="156.414" cy="379.294" r="6.108"/>
	<path fill="#CCCCCC" d="M138.629,354.091c0,4.429,3.589,8.018,8.017,8.018s8.018-3.589,8.018-8.018c0-4.424-3.59-8.018-8.018-8.018
		S138.629,349.667,138.629,354.091z"/>
	<path fill-rule="evenodd" clip-rule="evenodd" fill="#FFFFFF" d="M347.383,260.509c-2.923,0.324-5.525-0.208-7.954-1.97
		c-3.061-2.212-3.384-6.552-0.426-9.304c3.244-3.02,7.816-3.604,11.763-2.056c1.091,0.43,1.312,0.081,1.472-0.813
		c0.423-2.348,0.859-4.697,1.282-7.049c1.063-5.918,2.127-11.84,3.198-17.754c0.271-1.514-0.062-1.854-1.623-1.773
		c-1.477,0.076-2.948,0.136-4.429,0.152c-4.216,0.043-8.432,0.076-12.649,0.084c-1.486,0.002-2.973-0.105-4.456-0.118
		c-0.771-0.001-1.543,0.101-2.49,0.169c-0.828,4.592-1.603,9.031-2.435,13.465c-1.264,6.775-2.596,13.544-3.843,20.326
		c-0.735,4.03-3.336,5.738-6.679,6.644c-2.878,0.782-5.695,0.501-8.218-1.021c-4.271-2.578-4.692-6.756-1.25-10.015
		c3.135-2.965,7.083-3.3,11.155-2.076c0.318,0.098,0.593,0.335,1.12,0.643c0.258-0.566,0.61-1.062,0.708-1.602
		c2.244-12.4,4.449-24.812,6.692-37.209c0.427-2.328,0.509-2.247,2.86-2.166c2.967,0.102,5.942,0.031,8.913,0.081
		c2.768,0.042,5.54,0.177,8.313,0.22c3.201,0.045,6.402,0.014,9.604,0.051c1.532,0.018,3.062,0.134,4.59,0.186
		c0.863,0.027,1.181,0.412,1.001,1.271c-0.216,1.041-0.367,2.09-0.557,3.137c-2.465,13.707-4.922,27.421-7.412,41.129
		C354.845,257.511,351.955,259.998,347.383,260.509z"/>
	<g>
		<path fill-rule="evenodd" clip-rule="evenodd" fill="#FFFFFF" d="M204.066,219.491c-6.259-3.903-10.078-9.282-11.596-16.463
			c3.818-2.207,7.637-4.416,11.596-6.707C204.066,204.089,204.066,211.682,204.066,219.491z"/>
		<path fill-rule="evenodd" clip-rule="evenodd" fill="#FFFFFF" d="M228.559,177.727c5.499,2.624,10.61,9.924,11.494,16.409
			c-3.766,2.173-7.556,4.363-11.494,6.633C228.559,193.007,228.559,185.407,228.559,177.727z"/>
		<path fill-rule="evenodd" clip-rule="evenodd" fill="#FFFFFF" d="M192.072,198.446c0.201-7.461,3.015-13.457,8.454-18.304
			c3.857,2.226,7.658,4.417,11.632,6.712C205.443,190.73,198.835,194.544,192.072,198.446z"/>
		<path fill-rule="evenodd" clip-rule="evenodd" fill="#FFFFFF" d="M240.549,198.643c-0.19,7.474-3.04,13.431-8.433,18.319
			c-3.839-2.217-7.658-4.422-11.639-6.716C227.192,206.362,233.769,202.562,240.549,198.643z"/>
		<path fill-rule="evenodd" clip-rule="evenodd" fill="#FFFFFF" d="M208.325,208.026c6.693,3.869,13.273,7.669,19.906,11.502
			c-4.938,3.43-14.523,4.269-19.906,1.801C208.325,216.958,208.325,212.577,208.325,208.026z"/>
		<path fill-rule="evenodd" clip-rule="evenodd" fill="#FFFFFF" d="M204.26,177.495c6.284-3.394,12.618-4.019,19.208-2.069
			c0.345,0.104,0.838,0.565,0.842,0.867c0.053,4.189,0.039,8.382,0.039,12.796C217.618,185.204,211.041,181.409,204.26,177.495z"/>
	</g>
	<g>
		<path fill="#FFFFFF" d="M293.689,184.024l-5.247-2.102c0,0-5.693,2.704-8.113,8.749c-2.42,6.044,2.215,12.912,0.401,18.818
			C286.181,206.484,297.188,196.498,293.689,184.024z"/>
		<polygon fill="#FFFFFF" points="295.035,153.93 307.71,159.004 293.726,181.64 289.906,180.113 		"/>
	</g>
	<g>
		<path fill="#FFFFFF" d="M218.315,86.433c5.044,1.3,10.187-1.74,11.483-6.79l3.822-14.892c1.303-5.047-1.74-10.19-6.788-11.488
			c-5.048-1.296-10.187,1.745-11.487,6.796l-3.825,14.887C210.224,79.999,213.264,85.139,218.315,86.433z"/>
		<path fill="#FFFFFF" d="M237.953,79.87l-4.001-1.024c0,0-2.244,15.056-16.524,11.385c-14.284-3.669-8.993-17.94-8.993-17.94
			l-4.188-1.077c0,0-6.718,16.533,10.466,22.113l-3.29,12.818c-0.243,0.945,0.331,1.913,1.274,2.156
			c0.944,0.239,1.91-0.328,2.156-1.273l3.287-12.81C236.037,97.755,237.953,79.87,237.953,79.87z"/>
		<path fill="#FFFFFF" d="M219.101,112.787l-14.178-3.644c-1.976-0.505-3.988,0.683-4.496,2.66c-0.507,1.974,0.684,3.987,2.66,4.493
			l14.171,3.642c1.979,0.509,3.991-0.68,4.498-2.656C222.263,115.308,221.073,113.294,219.101,112.787z"/>
	</g>
	<g>
		<path fill-rule="evenodd" clip-rule="evenodd" fill="#FFFFFF" d="M234.142,290.299c-3.671-0.331-7.605-0.274-11.346-1.106
			c-6.933-1.547-11.821-9.067-10.702-15.714c1.233-7.33,7.612-12.724,14.883-12.393c3.642,0.159,7.302,0.444,10.898,1.012
			c8.193,1.289,13.499,9.976,11.212,17.929c-0.648,2.255-2.128,2.554-4.055,2.286c-2.269-0.313-2.29-1.661-1.958-3.574
			c1.11-6.355-0.697-9.244-7.059-10.498c-3.533-0.697-7.256-0.881-10.853-0.676c-3.89,0.232-6.911,3.582-7.197,7.101
			c-0.3,3.565,2.085,7.021,5.886,8.264c2.131,0.698,4.674,0.673,6.429,1.867C231.915,285.913,232.747,288.206,234.142,290.299z"/>
		<path fill-rule="evenodd" clip-rule="evenodd" fill="#FFFFFF" d="M246.206,262.76c6.989,0.908,13.738-0.127,18.958,5.248
			c3.664,3.772,5.14,10.236,3.026,15.442c-1.955,4.819-8.112,9.11-13.02,8.859c-3.769-0.193-7.552-0.489-11.282-1.025
			c-8.503-1.219-13.851-9.778-11.48-17.985c0.648-2.257,2.138-2.529,4.064-2.275c2.11,0.281,2.089,1.571,1.875,3.304
			c-0.881,7.144,1.631,10.332,8.75,11.228c2.497,0.313,5.02,0.594,7.527,0.58c4.741-0.035,8.049-3.089,8.419-7.503
			c0.362-4.255-2.216-8.296-6.683-8.609C251.525,269.685,248.943,267.028,246.206,262.76z"/>
	</g>
	<g>
		<polygon fill-rule="evenodd" clip-rule="evenodd" fill="#FFFFFF" points="148.89,143.643 155.428,103.146 111.551,110.45 
			109.727,121.799 		"/>
		<path fill-rule="evenodd" clip-rule="evenodd" fill="#FFFFFF" d="M157.178,117.127l-1.68-0.271l-2.332,14.44l1.68,0.27
			c3.988,0.645,7.742-2.066,8.387-6.053C163.878,121.523,161.166,117.771,157.178,117.127z"/>
		<g>
			<polygon fill-rule="evenodd" clip-rule="evenodd" fill="#FFFFFF" points="114.169,126.8 112.221,138.87 121.344,140.34 
				122.749,131.638 			"/>
			<polygon fill-rule="evenodd" clip-rule="evenodd" fill="#FFFFFF" points="123.13,129.265 124.18,122.759 115.06,121.289 
				114.553,124.429 			"/>
		</g>
	</g>
	<g>
		<polygon fill-rule="evenodd" clip-rule="evenodd" fill="#FFFFFF" points="289.995,106.603 286.099,110.802 279.751,105.119 
			276.035,112.894 270.79,110.594 274.309,102.454 266.218,101.698 266.795,96.028 274.756,96.888 272.967,88.29 279.142,87.005 
			280.928,95.605 287.888,91.648 290.668,96.615 283.556,100.53 		"/>
		<polygon fill-rule="evenodd" clip-rule="evenodd" fill="#FFFFFF" points="321.108,100.137 317.216,104.336 310.868,98.651 
			307.152,106.427 301.911,104.126 305.43,95.984 297.343,95.229 297.92,89.56 305.874,90.419 304.084,81.821 310.259,80.537 
			312.049,89.139 319.006,85.181 321.792,90.146 314.673,94.063 		"/>
		<polygon fill-rule="evenodd" clip-rule="evenodd" fill="#FFFFFF" points="352.234,93.669 348.337,97.868 341.993,92.182 
			338.28,99.96 333.028,97.658 336.551,89.515 328.464,88.762 329.039,83.09 336.995,83.952 335.21,75.354 341.385,74.069 
			343.17,82.669 350.127,78.712 352.914,83.677 345.798,87.594 		"/>
	</g>
	<g>
		<path fill="#FFFFFF" d="M132.88,251.915l-1.962-5.31c-2.779,0.646-5.157,0.853-7.141,0.609c-1.98-0.239-3.927-1.094-5.844-2.55
			c-1.917-1.463-3.48-3.533-4.695-6.218l4.966-2.979c1.472,2.701,2.974,4.527,4.513,5.479c2.191,1.335,4.375,1.729,6.538,1.17
			L123,225.208c-2.335,0.387-4.886,0.371-7.644-0.063c-2.039-0.321-3.825-1.146-5.357-2.479c-1.536-1.336-2.695-3.067-3.48-5.191
			c-1.398-3.777-1.194-7.334,0.617-10.662c1.212-2.236,3.511-4.187,6.9-5.846l-0.94-2.534l3.132-1.158l0.937,2.538
			c3.199-0.848,5.984-0.848,8.355-0.005c3.037,1.073,5.411,3.202,7.13,6.392l-5.182,2.857c-1.092-1.971-2.336-3.328-3.741-4.068
			c-1.405-0.744-3.04-0.979-4.903-0.686l5.671,15.318c2.923-0.321,4.886-0.459,5.893-0.402c1.92,0.118,3.597,0.498,5.027,1.159
			c1.426,0.659,2.688,1.601,3.776,2.828c1.096,1.231,1.948,2.683,2.568,4.354c1.363,3.678,1.328,7.182-0.102,10.509
			c-1.434,3.325-3.977,5.765-7.63,7.318l1.987,5.372L132.88,251.915z M115.672,205.397c-1.947,1.079-3.272,2.51-3.969,4.288
			c-0.698,1.777-0.705,3.581-0.025,5.413c0.667,1.809,1.737,3.141,3.203,3.982c1.465,0.845,3.54,1.187,6.231,1.018L115.672,205.397z
			 M132.383,240.959c1.977-1.021,3.354-2.546,4.132-4.583c0.778-2.031,0.753-4.176-0.088-6.446
			c-0.711-1.925-1.761-3.298-3.149-4.112c-1.389-0.818-3.681-1.162-6.876-1.034L132.383,240.959z"/>
	</g>
	<g>
		<polygon fill-rule="evenodd" clip-rule="evenodd" fill="#FFFFFF" points="380.231,175.646 366.788,164.363 363.738,147.079 
			372.516,131.879 389.008,125.878 405.505,131.879 414.276,147.079 411.228,164.363 397.787,175.646 		"/>
		<polygon fill-rule="evenodd" clip-rule="evenodd" fill="#FFFFFF" points="389.008,170.667 365.985,176.838 372.154,153.812 		"/>
	</g>
</g>
</svg>
