<?xml version="1.0" encoding="utf-8"?>
<!-- Generator: Adobe Illustrator 16.0.0, SVG Export Plug-In . SVG Version: 6.00 Build 0)  -->
<!DOCTYPE svg PUBLIC "-//W3C//DTD SVG 1.1//EN" "http://www.w3.org/Graphics/SVG/1.1/DTD/svg11.dtd">
<svg version="1.1" id="Layer_1" xmlns="http://www.w3.org/2000/svg" xmlns:xlink="http://www.w3.org/1999/xlink" x="0px" y="0px"
	 width="500px" height="500px" viewBox="0 0 500 500" enable-background="new 0 0 500 500" xml:space="preserve">
<g>
	
		<rect x="84.959" y="247.849" transform="matrix(0.9845 -0.1752 0.1752 0.9845 -56.6393 45.4631)" fill="#CCCCCC" width="288.54" height="191.49"/>
	<path fill="#CCCCCC" d="M195.231,152.479c9.514,53.488-26.131,104.563-79.618,114.078c-53.487,9.516-104.559-26.132-114.076-79.62
		C-7.977,133.457,27.668,82.382,81.155,72.859C134.642,63.352,185.714,98.998,195.231,152.479z"/>
	<path fill="#CCCCCC" d="M388.923,118.021c9.516,53.489-26.131,104.563-79.619,114.078c-53.485,9.515-104.559-26.131-114.073-79.62
		c-9.517-53.481,26.129-104.555,79.615-114.071C328.334,28.894,379.408,64.533,388.923,118.021z"/>
	<polygon fill="#CCCCCC" points="500,397.959 310.176,329.193 464.64,199.183 	"/>
</g>
</svg>
