<?xml version="1.0" encoding="utf-8"?>
<!-- Generator: Adobe Illustrator 16.0.0, SVG Export Plug-In . SVG Version: 6.00 Build 0)  -->
<!DOCTYPE svg PUBLIC "-//W3C//DTD SVG 1.1//EN" "http://www.w3.org/Graphics/SVG/1.1/DTD/svg11.dtd">
<svg version="1.1" id="Layer_1" xmlns="http://www.w3.org/2000/svg" xmlns:xlink="http://www.w3.org/1999/xlink" x="0px" y="0px"
	 width="500px" height="500px" viewBox="0 0 500 500" enable-background="new 0 0 500 500" xml:space="preserve">
<g>
	<path fill="#37A2DB" d="M321.867,194.19c0,36.315-29.444,65.767-65.771,65.767c-36.331,0-65.774-29.451-65.774-65.767
		c0-36.338,29.444-65.778,65.774-65.778C292.423,128.413,321.867,157.853,321.867,194.19z"/>
	<path fill="#8DC541" d="M155.355,218.804c6.322-4.618,9.847-10.768,10.854-18.853c0.069-0.559,0.321-0.996,0.542-1.302v-7.532
		l-0.283-1.328c-0.222-1.046-0.444-2.096-0.711-3.131c-1.888-7.345-5.593-12.684-11.322-16.309l-0.568-0.357l-0.202-0.642
		c-6.03-19.011-17.128-33.701-32.988-43.668c-11.318-7.1-23.758-10.703-36.979-10.703L82.228,115
		c-31.783,0.621-58.938,21.951-69.183,54.35l-0.195,0.62l-0.546,0.361c-6.721,4.426-10.667,10.873-11.729,19.159
		C0.5,190.063,0.238,190.5,0,190.807l0.115,8.43c0.204,0.52,0.433,1.122,0.54,1.8c0.617,4.076,2.056,7.824,4.282,11.14
		c4.503,6.706,10.994,10.137,19.285,10.191c2.803,0,4.556-1.717,4.729-4.596c0.035-0.577,0.025-1.169,0.017-1.757l-0.02-11.869
		c-0.023-9.689-0.047-19.382,0.086-29.072c0.054-3.954-0.512-6.529-3.566-7.99l-1.544-0.739l0.621-1.587
		c7.898-20.328,29.184-40.833,58.925-40.833c1.176,0,2.361,0.032,3.555,0.101c24.1,1.356,46.776,18.178,55.147,40.901l0.595,1.62
		l-1.579,0.707c-2.584,1.144-3.587,3.146-3.45,6.887c0.143,3.828,0.108,7.709,0.078,11.464c-0.013,1.624-0.025,3.257-0.025,4.884
		l-0.011,7.669c-0.009,6.273-0.018,12.547,0.021,18.816c0.027,3.788,1.591,5.357,5.402,5.408l1.168,0.003l2.347-0.003
		C148.676,221.863,153.453,220.366,155.355,218.804z"/>
	<path fill="none" d="M83.376,134.754c20.869,0,39.433,9.747,51.481,24.906c-9.401-17.561-28.208-30.036-48.096-31.154
		c-1.106-0.069-2.203-0.094-3.292-0.094c-24.301,0-42.5,14.769-51.536,31.189C43.987,144.473,62.533,134.754,83.376,134.754z"/>
	<path fill="#8DC541" d="M133.314,217c-0.04-6.281-0.03-12.565-0.021-18.845l0.011-7.666c0-1.641,0.013-3.279,0.027-4.996
		c0.029-3.68,0.059-7.482-0.078-11.19c-0.063-1.786-0.244-6.728,3.907-9.867c-0.68-1.634-1.466-3.214-2.302-4.776
		c-12.048-15.159-30.612-24.906-51.481-24.906c-20.844,0-39.389,9.718-51.442,24.848c-0.867,1.577-1.681,3.171-2.377,4.766
		c4.065,3.221,3.997,8.2,3.966,10.765c-0.133,9.523-0.112,19.22-0.088,28.596v0.408l0.02,11.811
		c0.011,0.693,0.017,1.396-0.025,2.093c-0.316,5.277-4.017,8.816-9.237,8.816c-0.375-0.004-0.732-0.054-1.106-0.065
		c10.143,23.239,33.302,39.508,60.289,39.508c26.948,0,50.085-16.226,60.248-39.429h-0.481
		C136.85,226.78,133.357,223.28,133.314,217z"/>
	<g>
		<path fill-rule="evenodd" clip-rule="evenodd" fill="#FFFFFF" d="M292.463,214.958c-0.347,1.292-0.617,2.612-1.046,3.878
			c-2.204,6.565-6.948,10.339-13.546,11.674c-6.356,1.292-12.129-0.494-17.327-4.228c-1.594-1.154-3.116-2.406-4.892-3.777
			c-0.497,0.584-0.952,1.205-1.486,1.742c-2.586,2.619-5.652,4.618-9.145,5.617c-6.47,1.854-12.59,0.92-18.225-3.008
			c-4.278-2.969-6.604-6.991-7.069-12.226c0.258,0.281,0.527,0.552,0.779,0.837c1.335,1.526,2.783,2.915,4.693,3.716
			c1.328,0.562,2.63,0.761,3.88-0.202c1.439-1.111,2.875-2.222,4.318-3.341c1.8-1.392,3.488-2.965,5.417-4.155
			c5.312-3.283,11.612-2.294,15.824,2.316c0.404,0.447,0.819,0.895,1.331,1.45c0.563-0.671,1.107-1.285,1.62-1.923
			c1.861-2.312,4.325-3.319,7.232-3.575c5.127-0.461,9.131,1.678,12.685,5.086c1.342,1.288,2.752,2.54,4.285,3.579
			c2.745,1.854,4.318,1.696,6.844-0.472c1.172-1.01,2.269-2.1,3.401-3.149C292.174,214.85,292.318,214.904,292.463,214.958z"/>
	</g>
	<path fill="#37A2DB" d="M232.527,342.646c0,36.312-29.453,65.764-65.778,65.764c-36.327,0-65.774-29.451-65.774-65.764
		c0-36.338,29.447-65.781,65.774-65.781C203.074,276.865,232.527,306.309,232.527,342.646z"/>
	<path fill="#FFFFFF" d="M225.235,333.256c-0.887-1.006-1.804-2.049-2.204-3.127c-3.981-10.765-13.312-17.457-24.348-17.457h-0.208
		c-10.972,0.076-19.262,5.653-23.997,16.137h-16.087c-0.13-0.257-0.307-0.624-0.489-0.981
		c-5.379-10.732-14.971-16.165-26.637-15.115c-10.112,0.931-18.531,8.366-21.98,19.39c-0.175,0.56-0.734,1.072-1.331,1.605
		c-0.639,0.585-1.302,1.184-1.624,1.977c-0.631,1.569-0.686,3.644-0.125,5.036c0.364,0.909,1.059,1.663,1.733,2.381
		c0.666,0.722,1.295,1.396,1.53,2.146c3.49,11.237,13.464,18.788,24.821,18.788c3.35,0,6.645-0.668,9.796-1.984
		c9.682-4.048,15.129-11.89,16.188-23.304c0.335-3.618,2.408-5.451,6.152-5.451h0.245c3.582,0.068,5.603,1.865,6.005,5.335
		c0.151,1.317,0.339,2.594,0.571,3.803c2.3,11.983,11.764,20.801,23.019,21.425c13.091,0.667,23.407-6.505,27.319-19.012
		c0.332-1.063,1.17-2.11,1.98-3.138c1.127-1.411,2.195-2.753,2.11-4.243C227.587,335.926,226.395,334.565,225.235,333.256z
		 M198.549,358.486c-11.124,0-20.247-9.021-20.338-20.101c-0.042-5.356,2.031-10.422,5.835-14.26
		c3.885-3.91,9.076-6.064,14.614-6.064h0.191c5.408,0.04,10.461,2.179,14.226,6.018c3.764,3.842,5.808,8.936,5.755,14.34
		C218.729,349.678,209.818,358.486,198.549,358.486z M154.731,338.613c-0.291,11.146-9.26,19.873-20.427,19.873h-0.146
		c-11.125-0.072-20.122-9.188-20.052-20.303c0.07-11.291,9.033-20.133,20.409-20.133l0.352,0.011
		c5.372,0.08,10.429,2.31,14.235,6.273C152.872,328.271,154.87,333.336,154.731,338.613z"/>
	<path fill="#EE4645" d="M468.151,194.19c0,36.315-29.447,65.767-65.774,65.767c-36.326,0-65.777-29.451-65.777-65.767
		c0-36.338,29.451-65.778,65.777-65.778C438.704,128.413,468.151,157.853,468.151,194.19z"/>
	<g>
		<path fill-rule="evenodd" clip-rule="evenodd" fill="#EE4645" d="M413.113,122.803c-1.447-3.863-2.323-6.894-3.662-9.7
			c-5.512-11.468,0.015-20.793,12.951-21.479c9.098-0.476,16.306,4.069,23.099,9.321c2.146,1.652,4.173,3.716,5.635,5.985
			c6.645,10.375,16.811,15.043,28.115,18.236c4.139,1.168,8.243,2.878,11.948,5.046c7.132,4.167,10.188,11.118,8.211,17.222
			c-2.717,8.387-8.922,12.662-17.785,12.171c-4.019-0.216-8.03-0.588-13.325-0.981C455.525,139.202,436.457,126.782,413.113,122.803
			z"/>
		<path fill-rule="evenodd" clip-rule="evenodd" fill="#EE4645" d="M460.753,112.118c4.949-5.188,9.892-8.012,16.396-8.456
			c0.181,1.187,0.635,2.637,0.386,2.777c-4.693,2.5-9.451,4.899-14.278,7.15C462.849,113.784,461.886,112.814,460.753,112.118z"/>
	</g>
	<path fill="#8DC541" d="M398.567,374.583c-3.459-1.23-7.186-1.825-11.398-1.825l-0.715,0.003
		c-3.658,0.047-7.479,0.231-11.367,0.549c-1.227,0.098-2.604,0.422-4.202,0.992c-1.028,0.356-1.19,0.566-1.198,0.573
		c-0.014,0.021-0.147,0.3-0.039,1.584c0.205,2.355,0.469,4.704,0.758,7.254l0.808,7.363l-3.424-1.35
		c-0.473-0.188-0.941-0.335-1.385-0.473c-1.126-0.36-2.287-0.729-3.298-1.54c-3.182-2.562-6.894-5.631-10.32-8.957
		c-2.153-2.093-4.145-4.357-6.064-6.555c-0.793-0.898-1.583-1.8-2.384-2.691l-0.04-0.043l-0.375,0.213
		c6.021,9.905,12.925,20.782,22.882,28.772c1.382,1.104,2.716,2.013,4.029,2.821c0.025,0.015,0.047,0.025,0.072,0.039
		c0.88,0.545,1.757,1.043,2.622,1.458c0.21,0.101,0.419,0.177,0.628,0.274c0.689,0.31,1.386,0.627,2.074,0.858
		c0.935,0.324,1.869,0.584,2.811,0.771c8.401,1.682,12.976-0.509,16.31-8.059c3.254-7.374,3.712-15.147,3.729-21.774
		C399.105,374.864,399.026,374.741,398.567,374.583z"/>
	<path fill="#8DC541" d="M338.927,370.034l-1.184-1.955l7.554-4.308l2.355,2.767c0.809,0.895,1.609,1.812,2.414,2.728
		c1.868,2.128,3.798,4.332,5.825,6.302c3.29,3.193,6.905,6.18,10.008,8.684c0.025,0.021,0.061,0.043,0.094,0.068l-0.011-0.104
		c-0.296-2.59-0.563-4.985-0.769-7.381c-0.321-3.73,0.815-5.556,4.191-6.735c1.963-0.692,3.705-1.093,5.321-1.227
		c3.989-0.32,7.911-0.509,11.659-0.562l0.783-0.004c2.799,0,5.407,0.268,7.893,0.754c3.557-8.091,5.562-17.013,5.562-26.413
		c0-36.338-29.447-65.781-65.771-65.781c-36.33,0-65.774,29.443-65.774,65.781c0,36.312,29.444,65.764,65.774,65.764
		c10.368,0,20.144-2.468,28.87-6.746C352.667,392.682,345.365,380.658,338.927,370.034z"/>
</g>
</svg>
