<?xml version="1.0" encoding="utf-8"?>
<!-- Generator: Adobe Illustrator 16.0.0, SVG Export Plug-In . SVG Version: 6.00 Build 0)  -->
<!DOCTYPE svg PUBLIC "-//W3C//DTD SVG 1.1//EN" "http://www.w3.org/Graphics/SVG/1.1/DTD/svg11.dtd">
<svg version="1.1" id="Layer_1" xmlns="http://www.w3.org/2000/svg" xmlns:xlink="http://www.w3.org/1999/xlink" x="0px" y="0px"
	 width="500px" height="500px" viewBox="0 0 500 500" enable-background="new 0 0 500 500" xml:space="preserve">
<g>
	<g>
		<path fill-rule="evenodd" clip-rule="evenodd" fill="#37A2DB" d="M59.383,144.107C26.589,144.107,0,170.698,0,203.494
			c0,32.796,26.589,59.385,59.383,59.385c32.798,0,59.386-26.589,59.386-59.385C118.77,170.698,92.182,144.107,59.383,144.107z
			 M69.166,212.522l-4.664,3.315l-5.052-6.846l-5.218,6.846l-4.662-3.315l5.1-7.247l-7.76-2.389l1.716-5.418l7.607,2.455v-8.771
			h6.305v8.771l7.608-2.455l1.712,5.418l-7.759,2.389L69.166,212.522z"/>
		<g>
			<g>
				<path fill="#37A2DB" d="M58.34,355.893v-3.881c-1.956-0.244-3.55-0.68-4.776-1.303c-1.229-0.627-2.285-1.633-3.177-3.029
					c-0.892-1.393-1.412-3.1-1.558-5.111l3.943-0.732c0.303,2.08,0.837,3.615,1.609,4.592c1.1,1.379,2.424,2.148,3.959,2.307v-12.35
					c-1.613-0.303-3.257-0.922-4.94-1.857c-1.247-0.689-2.208-1.646-2.885-2.867c-0.673-1.219-1.01-2.609-1.01-4.162
					c0-2.758,0.985-4.996,2.958-6.705c1.32-1.15,3.281-1.852,5.876-2.115v-1.852h2.308v1.852c2.275,0.217,4.085,0.879,5.419,1.988
					c1.712,1.406,2.739,3.342,3.09,5.797l-4.047,0.604c-0.234-1.521-0.717-2.688-1.449-3.504c-0.735-0.811-1.736-1.346-3.013-1.605
					v11.189c1.971,0.49,3.276,0.869,3.916,1.145c1.223,0.531,2.217,1.174,2.981,1.941c0.771,0.76,1.364,1.666,1.777,2.713
					c0.414,1.049,0.618,2.188,0.618,3.41c0,2.686-0.859,4.93-2.589,6.725c-1.726,1.799-3.959,2.76-6.703,2.891v3.922H58.34z
					 M58.34,321.912c-1.521,0.23-2.728,0.836-3.602,1.816c-0.877,0.971-1.316,2.131-1.316,3.469c0,1.324,0.374,2.43,1.123,3.32
					c0.746,0.893,2.011,1.6,3.795,2.133V321.912z M60.648,348.734c1.521-0.188,2.783-0.84,3.774-1.959
					c0.995-1.119,1.492-2.514,1.492-4.164c0-1.406-0.351-2.541-1.057-3.393c-0.702-0.857-2.106-1.621-4.208-2.299V348.734z"/>
			</g>
		</g>
	</g>
	<g>
		<path fill-rule="evenodd" clip-rule="evenodd" fill="#8DC541" d="M250,144.107c-32.796,0-59.386,26.591-59.386,59.387
			c0,32.796,26.59,59.385,59.386,59.385c32.793,0,59.387-26.589,59.387-59.385C309.387,170.698,282.793,144.107,250,144.107z
			 M244.248,212.522l-4.663,3.315l-5.051-6.846l-5.218,6.846l-4.666-3.315l5.101-7.247l-7.757-2.386l1.717-5.421l7.606,2.455v-8.771
			h6.3v8.771l7.611-2.455l1.713,5.421l-7.756,2.386L244.248,212.522z M275.313,212.522l-4.665,3.315l-5.047-6.846l-5.221,6.846
			l-4.665-3.315l5.103-7.247l-7.759-2.386l1.715-5.421l7.606,2.455v-8.771h6.304v8.771l7.608-2.455l1.718,5.421l-7.762,2.386
			L275.313,212.522z"/>
		<g>
			<g>
				<g>
					<path fill="#8DC541" d="M233.099,355.893v-3.881c-1.956-0.244-3.551-0.68-4.777-1.303c-1.229-0.627-2.284-1.633-3.177-3.029
						c-0.891-1.393-1.412-3.1-1.557-5.111l3.943-0.732c0.303,2.08,0.837,3.615,1.608,4.592c1.101,1.379,2.424,2.148,3.96,2.307
						v-12.35c-1.613-0.303-3.258-0.922-4.94-1.857c-1.247-0.689-2.208-1.646-2.885-2.867c-0.674-1.219-1.01-2.609-1.01-4.162
						c0-2.758,0.985-4.996,2.958-6.705c1.32-1.15,3.279-1.852,5.876-2.115v-1.852h2.308v1.852c2.274,0.217,4.085,0.879,5.418,1.988
						c1.712,1.406,2.74,3.342,3.091,5.797l-4.047,0.604c-0.234-1.521-0.717-2.688-1.45-3.504c-0.735-0.811-1.735-1.346-3.012-1.605
						v11.189c1.971,0.49,3.276,0.869,3.915,1.145c1.224,0.531,2.218,1.174,2.981,1.941c0.771,0.76,1.363,1.666,1.778,2.713
						c0.412,1.049,0.618,2.188,0.618,3.41c0,2.686-0.859,4.93-2.589,6.725c-1.728,1.799-3.961,2.76-6.703,2.891v3.922H233.099z
						 M233.099,321.912c-1.521,0.23-2.729,0.836-3.602,1.816c-0.877,0.971-1.318,2.131-1.318,3.469c0,1.324,0.374,2.43,1.125,3.32
						c0.746,0.893,2.01,1.6,3.795,2.133V321.912z M235.407,348.734c1.521-0.188,2.783-0.84,3.772-1.959
						c0.995-1.119,1.493-2.514,1.493-4.164c0-1.406-0.351-2.541-1.058-3.393c-0.702-0.857-2.106-1.621-4.208-2.299V348.734z"/>
				</g>
			</g>
			<g>
				<g>
					<path fill="#8DC541" d="M264.812,355.893v-3.881c-1.959-0.244-3.551-0.68-4.777-1.303c-1.226-0.627-2.284-1.633-3.175-3.029
						c-0.896-1.393-1.414-3.1-1.562-5.111l3.942-0.732c0.306,2.08,0.84,3.615,1.613,4.592c1.099,1.379,2.422,2.148,3.958,2.307
						v-12.35c-1.612-0.303-3.256-0.922-4.94-1.857c-1.246-0.689-2.208-1.646-2.885-2.867c-0.671-1.219-1.012-2.609-1.012-4.162
						c0-2.758,0.986-4.996,2.961-6.705c1.317-1.15,3.281-1.852,5.876-2.115v-1.852h2.305v1.852c2.279,0.217,4.086,0.879,5.424,1.988
						c1.71,1.406,2.737,3.342,3.088,5.797l-4.05,0.604c-0.233-1.521-0.717-2.688-1.444-3.504c-0.738-0.811-1.74-1.346-3.018-1.605
						v11.189c1.975,0.49,3.276,0.869,3.918,1.145c1.221,0.531,2.218,1.174,2.981,1.941c0.773,0.76,1.363,1.666,1.775,2.713
						c0.417,1.049,0.621,2.188,0.621,3.41c0,2.686-0.86,4.93-2.59,6.725c-1.725,1.799-3.958,2.76-6.706,2.891v3.922H264.812z
						 M264.812,321.912c-1.521,0.23-2.727,0.836-3.602,1.816c-0.881,0.971-1.318,2.131-1.318,3.469c0,1.324,0.377,2.43,1.125,3.32
						c0.742,0.893,2.009,1.6,3.795,2.133V321.912z M267.117,348.734c1.521-0.188,2.783-0.84,3.775-1.959
						c0.997-1.119,1.491-2.514,1.491-4.164c0-1.406-0.352-2.541-1.054-3.393c-0.702-0.857-2.106-1.621-4.213-2.299V348.734z"/>
				</g>
			</g>
		</g>
	</g>
	<g>
		<path fill-rule="evenodd" clip-rule="evenodd" fill="#EE4645" d="M440.616,144.107c-32.802,0-59.385,26.591-59.385,59.387
			c0,32.796,26.583,59.385,59.385,59.385c32.79,0,59.384-26.589,59.384-59.385C500,170.698,473.406,144.107,440.616,144.107z
			 M418.637,212.522l-4.658,3.315l-5.055-6.846l-5.215,6.846l-4.663-3.315l5.101-7.247l-7.762-2.386l1.718-5.421l7.608,2.455v-8.771
			h6.299v8.771l7.608-2.455l1.715,5.421l-7.759,2.386L418.637,212.522z M450.392,212.522l-4.665,3.315l-5.05-6.846l-5.22,6.846
			l-4.655-3.315l5.098-7.247l-7.757-2.386l1.713-5.421l7.611,2.455v-8.771h6.298v8.771l7.606-2.455l1.72,5.421l-7.759,2.386
			L450.392,212.522z M482.147,212.522l-4.66,3.315l-5.053-6.846l-5.215,6.846l-4.668-3.315l5.103-7.247l-7.759-2.386l1.713-5.421
			l7.61,2.455v-8.771h6.299v8.771l7.611-2.455l1.715,5.421l-7.756,2.386L482.147,212.522z"/>
		<g>
			<g>
				<g>
					<path fill="#EE4645" d="M405.79,355.893v-3.881c-1.954-0.244-3.549-0.68-4.775-1.303c-1.229-0.627-2.284-1.633-3.177-3.029
						c-0.891-1.393-1.412-3.1-1.557-5.111l3.942-0.732c0.301,2.08,0.835,3.615,1.608,4.592c1.099,1.379,2.424,2.148,3.958,2.307
						v-12.35c-1.613-0.303-3.256-0.922-4.94-1.857c-1.246-0.689-2.208-1.646-2.885-2.867c-0.672-1.219-1.007-2.609-1.007-4.162
						c0-2.758,0.981-4.996,2.955-6.705c1.323-1.15,3.282-1.852,5.877-2.115v-1.852h2.31v1.852c2.274,0.217,4.086,0.879,5.419,1.988
						c1.712,1.406,2.737,3.342,3.088,5.797l-4.045,0.604c-0.233-1.521-0.717-2.688-1.45-3.504c-0.734-0.811-1.734-1.346-3.012-1.605
						v11.189c1.969,0.49,3.276,0.869,3.915,1.145c1.224,0.531,2.216,1.174,2.981,1.941c0.771,0.76,1.363,1.666,1.778,2.713
						c0.412,1.049,0.615,2.188,0.615,3.41c0,2.686-0.859,4.93-2.589,6.725c-1.726,1.799-3.959,2.76-6.701,2.891v3.922H405.79z
						 M405.79,321.912c-1.521,0.23-2.728,0.836-3.603,1.816c-0.875,0.971-1.315,2.131-1.315,3.469c0,1.324,0.374,2.43,1.122,3.32
						c0.748,0.893,2.013,1.6,3.796,2.133V321.912z M408.1,348.734c1.521-0.188,2.783-0.84,3.772-1.959
						c0.995-1.119,1.493-2.514,1.493-4.164c0-1.406-0.351-2.541-1.058-3.393c-0.702-0.857-2.106-1.621-4.208-2.299V348.734z"/>
				</g>
			</g>
			<g>
				<g>
					<path fill="#EE4645" d="M439.57,355.893v-3.881c-1.956-0.244-3.549-0.68-4.775-1.303c-1.23-0.627-2.284-1.633-3.18-3.029
						c-0.89-1.393-1.409-3.1-1.557-5.111l3.943-0.732c0.303,2.08,0.837,3.615,1.607,4.592c1.102,1.379,2.427,2.148,3.961,2.307
						v-12.35c-1.613-0.303-3.259-0.922-4.94-1.857c-1.246-0.689-2.208-1.646-2.885-2.867c-0.674-1.219-1.01-2.609-1.01-4.162
						c0-2.758,0.984-4.996,2.958-6.705c1.32-1.15,3.279-1.852,5.877-2.115v-1.852h2.308v1.852c2.273,0.217,4.085,0.879,5.418,1.988
						c1.715,1.406,2.74,3.342,3.091,5.797l-4.047,0.604c-0.234-1.521-0.718-2.688-1.45-3.504c-0.732-0.811-1.735-1.346-3.012-1.605
						v11.189c1.971,0.49,3.276,0.869,3.917,1.145c1.222,0.531,2.216,1.174,2.981,1.941c0.769,0.76,1.363,1.666,1.775,2.713
						c0.412,1.049,0.618,2.188,0.618,3.41c0,2.686-0.859,4.93-2.589,6.725c-1.728,1.799-3.961,2.76-6.703,2.891v3.922H439.57z
						 M439.57,321.912c-1.521,0.23-2.729,0.836-3.603,1.816c-0.877,0.971-1.314,2.131-1.314,3.469c0,1.324,0.371,2.43,1.121,3.32
						c0.746,0.893,2.013,1.6,3.796,2.133V321.912z M441.878,348.734c1.521-0.188,2.782-0.84,3.774-1.959s1.491-2.514,1.491-4.164
						c0-1.406-0.352-2.541-1.059-3.393c-0.702-0.857-2.106-1.621-4.207-2.299V348.734z"/>
				</g>
			</g>
			<g>
				<g>
					<path fill="#EE4645" d="M473.351,355.893v-3.881c-1.959-0.244-3.552-0.68-4.777-1.303c-1.229-0.627-2.284-1.633-3.178-3.029
						c-0.893-1.393-1.412-3.1-1.56-5.111l3.943-0.732c0.306,2.08,0.84,3.615,1.61,4.592c1.102,1.379,2.424,2.148,3.961,2.307v-12.35
						c-1.613-0.303-3.259-0.922-4.94-1.857c-1.246-0.689-2.208-1.646-2.885-2.867c-0.674-1.219-1.013-2.609-1.013-4.162
						c0-2.758,0.987-4.996,2.961-6.705c1.318-1.15,3.279-1.852,5.877-2.115v-1.852h2.305v1.852c2.276,0.217,4.086,0.879,5.421,1.988
						c1.712,1.406,2.74,3.342,3.091,5.797l-4.05,0.604c-0.234-1.521-0.718-2.688-1.447-3.504c-0.735-0.811-1.737-1.346-3.015-1.605
						v11.189c1.974,0.49,3.276,0.869,3.918,1.145c1.221,0.531,2.218,1.174,2.981,1.941c0.771,0.76,1.363,1.666,1.775,2.713
						c0.414,1.049,0.62,2.188,0.62,3.41c0,2.686-0.859,4.93-2.589,6.725c-1.728,1.799-3.961,2.76-6.706,2.891v3.922H473.351z
						 M473.351,321.912c-1.521,0.23-2.729,0.836-3.603,1.816c-0.88,0.971-1.317,2.131-1.317,3.469c0,1.324,0.374,2.43,1.124,3.32
						c0.743,0.893,2.01,1.6,3.796,2.133V321.912z M475.655,348.734c1.521-0.188,2.783-0.84,3.775-1.959
						c0.994-1.119,1.49-2.514,1.49-4.164c0-1.406-0.351-2.541-1.056-3.393c-0.702-0.857-2.106-1.621-4.21-2.299V348.734z"/>
				</g>
			</g>
		</g>
	</g>
</g>
</svg>
