<?xml version="1.0" encoding="utf-8"?>
<!-- Generator: Adobe Illustrator 16.0.0, SVG Export Plug-In . SVG Version: 6.00 Build 0)  -->
<!DOCTYPE svg PUBLIC "-//W3C//DTD SVG 1.1//EN" "http://www.w3.org/Graphics/SVG/1.1/DTD/svg11.dtd">
<svg version="1.1" id="Layer_1" xmlns="http://www.w3.org/2000/svg" xmlns:xlink="http://www.w3.org/1999/xlink" x="0px" y="0px"
	 width="500px" height="500px" viewBox="0 0 500 500" enable-background="new 0 0 500 500" xml:space="preserve">
<g>
	<path fill="#EE4645" d="M0,283.863v159.339h500V283.863H0z M467.856,369.279H31.793v-60.24h436.063V369.279z"/>
	<rect x="153.33" y="238.383" fill="#FFFFFF" width="195.631" height="97.916"/>
	<g>
		<path fill="#CCCCCC" d="M84.801,166.422"/>
		<polygon fill="#CCCCCC" points="69.516,176.091 235.458,57.029 260.58,56.798 427.61,172.795 285.975,286.974 249.326,257.452 
			213.231,287.644 		"/>
		<g>
			<g>
				<path fill="#FFFFFF" d="M249.883,156.545c-50.64-0.262-67.182,42.452-67.272,60.612c-0.095,18.16,11.873,44.16,23.017,63.247
					c11.141,19.076,17.907,48.51,17.907,48.51l25.449,0.135l25.45,0.127c0,0,7.072-29.36,18.409-48.323
					c11.341-18.964,23.581-44.841,23.676-62.999C316.613,199.696,300.517,156.811,249.883,156.545z"/>
				<polygon fill="#CCCCCC" points="251.278,313.173 257.444,313.202 271.101,242.91 268.832,242.896 				"/>
				<polygon fill="#CCCCCC" points="247.527,313.147 241.373,313.118 228.44,242.688 230.713,242.701 				"/>
				<path fill="none" stroke="#CCCCCC" stroke-miterlimit="10" d="M274.382,227.252c0,0-0.353,6.16-5.324,6.135
					c-4.971-0.023-4.617-6.184-4.617-6.184h-0.004c0,0-0.357,6.154-5.328,6.133c-4.971-0.029-4.614-6.186-4.614-6.186h-0.004
					c0,0-0.356,6.157-5.328,6.131c-4.971-0.022-4.618-6.182-4.618-6.182h-0.16c0,0-0.357,6.158-5.328,6.129
					c-4.971-0.022-4.618-6.181-4.618-6.181h-0.004c0,0-0.353,6.155-5.328,6.133c-4.967-0.029-4.614-6.189-4.614-6.189"/>
			</g>
			<polygon fill="#FFFFFF" points="243.459,137.318 245.611,137.3 248.343,122.856 241.183,122.921 			"/>
			<polygon fill="#FFFFFF" points="196.33,150.121 198.151,148.983 192.939,135.235 186.864,139.033 			"/>
			<polygon fill="#FFFFFF" points="171.594,184.792 172.654,182.921 161.517,173.323 157.984,179.553 			"/>
			<polygon fill="#FFFFFF" points="168.488,229.037 168.444,226.894 153.964,224.346 154.117,231.506 			"/>
			<polygon fill="#FFFFFF" points="293.182,147.229 295.032,148.327 304.861,137.393 298.703,133.73 			"/>
			<polygon fill="#FFFFFF" points="324.742,181.606 325.842,183.451 339.699,178.522 336.028,172.371 			"/>
			<polygon fill="#FFFFFF" points="334.779,224.932 335.005,227.074 349.642,228.441 348.902,221.316 			"/>
		</g>
		<polygon fill="#CCCCCC" points="71.745,418.153 429.839,414.854 249.439,269.515 		"/>
		<polygon fill="#CCCCCC" points="63.062,412.195 204.659,293.755 60.943,182.204 		"/>
		<polygon fill="#CCCCCC" points="438.408,408.739 294.656,292.924 436.293,178.75 		"/>
	</g>
	<rect x="9.403" y="367.444" fill="#EE4645" width="483.095" height="72.801"/>
	<g>
		<text transform="matrix(1 0 0 1 56.7871 415.4912)" fill="#FFFFFF" font-family="'Lato-Bold'" font-size="34.6216">hello@vakansivisual.com</text>
	</g>
</g>
</svg>
