<?xml version="1.0" encoding="utf-8"?>
<!-- Generator: Adobe Illustrator 16.0.0, SVG Export Plug-In . SVG Version: 6.00 Build 0)  -->
<!DOCTYPE svg PUBLIC "-//W3C//DTD SVG 1.1//EN" "http://www.w3.org/Graphics/SVG/1.1/DTD/svg11.dtd">
<svg version="1.1" id="Layer_1" xmlns="http://www.w3.org/2000/svg" xmlns:xlink="http://www.w3.org/1999/xlink" x="0px" y="0px"
	 width="500px" height="500px" viewBox="0 0 500 500" enable-background="new 0 0 500 500" xml:space="preserve">
<g>
	<polygon fill="#FFFFFF" points="286.49,222.868 224.055,67.673 250.286,67.673 286.49,162.116 322.691,67.673 348.924,67.673 	"/>
	<polygon fill="#FFFFFF" points="149.838,67.957 176.068,67.957 247.296,251.598 261.505,214.512 274.223,246.122 247.296,312.351 	
		"/>
	<polygon fill="#FFFFFF" points="31.751,386.374 15.484,432.248 0,386.374 2.886,386.374 15.669,424.236 28.938,386.374 	"/>
	<polygon fill="#FFFFFF" points="39.915,415.836 33.953,430.565 30.99,430.565 49.585,384.835 68.097,430.565 65.139,430.565 
		59.18,415.836 58.204,413.254 49.585,392.149 40.961,413.254 	"/>
	<polygon fill="#FFFFFF" points="108.009,430.565 104.341,430.565 83.347,409.427 82.109,410.549 82.109,430.565 79.298,430.565 
		79.298,386.374 82.109,386.374 82.109,406.951 102.988,386.374 106.848,386.374 85.262,407.667 	"/>
	<polygon fill="#FFFFFF" points="125.392,415.836 119.435,430.565 116.469,430.565 135.066,384.835 153.578,430.565 
		150.621,430.565 144.658,415.836 143.69,413.254 135.066,392.149 126.444,413.254 	"/>
	<polygon fill="#FFFFFF" points="203.541,432.327 166.805,392.674 166.805,430.565 163.841,430.565 163.841,385.773 
		200.804,425.172 200.804,386.374 203.541,386.374 	"/>
	<path fill="#FFFFFF" d="M241.881,417.812c0.101,3.604-1.169,6.715-3.81,9.345c-2.631,2.616-5.788,3.959-9.461,4.008
		c-2.974,0.052-5.397-0.479-7.271-1.577c-2.096-1.229-3.935-3.39-5.51-6.469l-0.716-1.391l2.399-1.244l0.606,1.197
		c1.268,2.529,2.707,4.322,4.307,5.398c1.7,1.1,3.851,1.575,6.442,1.424c2.555-0.15,4.812-1.094,6.771-2.831
		c1.964-1.73,3.065-3.888,3.313-6.466c0.027-0.323,0.038-0.637,0.038-0.938c0-3.073-1.957-5.645-5.877-7.723l-10.123-5.319
		c-3.202-1.7-4.924-4.233-5.172-7.605c-0.231-3.229,0.678-5.979,2.718-8.247c2.035-2.276,4.619-3.438,7.735-3.487
		c4.373-0.075,7.811,1.461,10.312,4.609l1.121,1.421l-1.906,1.654l-1.386-1.691c-1.944-2.371-4.421-3.56-7.444-3.56
		c-0.321,0-0.66,0.015-1.008,0.039c-2.324,0.174-4.19,1.188-5.614,3.036c-1.321,1.729-1.921,3.644-1.791,5.74
		c0.07,1.401,0.632,2.729,1.684,3.978c0.795,0.978,1.696,1.715,2.692,2.215l10.252,5.256
		C239.547,410.811,241.777,413.886,241.881,417.812"/>
	<rect x="255.893" y="386.374" fill="#FFFFFF" width="2.881" height="44.191"/>
	<polygon fill="#FFFFFF" points="328.587,386.374 312.32,432.248 296.841,386.374 299.729,386.374 312.51,424.236 325.773,386.374 	
		"/>
	<rect x="342.45" y="386.374" fill="#FFFFFF" width="2.884" height="44.191"/>
	<path fill="#FFFFFF" d="M386.634,417.812c0.101,3.604-1.169,6.715-3.808,9.345c-2.637,2.616-5.79,3.959-9.465,4.008
		c-2.973,0.052-5.395-0.479-7.271-1.577c-2.093-1.229-3.933-3.39-5.508-6.469l-0.716-1.391l2.397-1.244l0.605,1.197
		c1.27,2.529,2.71,4.322,4.303,5.398c1.705,1.1,3.852,1.575,6.449,1.424c2.553-0.15,4.809-1.094,6.768-2.831
		c1.963-1.73,3.068-3.888,3.315-6.466c0.026-0.323,0.037-0.637,0.037-0.938c0-3.071-1.956-5.643-5.876-7.721l-10.125-5.319
		c-3.2-1.7-4.924-4.233-5.17-7.605c-0.23-3.229,0.676-5.979,2.715-8.247c2.039-2.276,4.615-3.438,7.734-3.487
		c4.375-0.075,7.814,1.461,10.313,4.609l1.122,1.421l-1.906,1.654l-1.387-1.691c-1.943-2.371-4.42-3.56-7.444-3.56
		c-0.317,0-0.659,0.015-1.012,0.039c-2.32,0.174-4.192,1.188-5.608,3.036c-1.322,1.729-1.921,3.644-1.793,5.74
		c0.067,1.401,0.635,2.729,1.684,3.978c0.796,0.978,1.697,1.715,2.689,2.215l10.258,5.256
		C384.297,410.811,386.531,413.886,386.634,417.812"/>
	<path fill="#FFFFFF" d="M427.37,418.037c0,3.8-1.445,6.937-4.344,9.419c-2.727,2.301-6.054,3.538-9.975,3.709
		c-4.126,0.201-7.674-1.019-10.642-3.653c-2.977-2.639-4.467-5.937-4.467-9.889v-31.249h2.734v30.991c0,3.4,1.208,6.133,3.613,8.216
		c2.326,2,5.229,2.953,8.701,2.848c3.254-0.101,5.969-1.088,8.154-2.963c2.322-2.021,3.484-4.688,3.484-7.99v-31.102h2.736v31.663
		H427.37z"/>
	<polygon fill="#FFFFFF" points="446.438,415.836 440.481,430.565 437.517,430.565 456.109,384.835 474.624,430.565 
		471.669,430.565 465.71,415.836 464.737,413.254 456.109,392.149 447.492,413.254 	"/>
	<polygon fill="#FFFFFF" points="500,430.565 486.123,430.565 486.123,386.374 489.015,386.374 489.015,427.906 500,427.906 	"/>
</g>
</svg>
